<svg width="271" height="261" viewBox="0 0 271 261" fill="none" xmlns="http://www.w3.org/2000/svg">
<path d="M105.098 22.6412C114.573 -6.51831 155.826 -6.51831 165.3 22.6412L175.466 53.9278C179.703 66.9683 191.855 75.7974 205.567 75.7974L238.463 75.7974C269.124 75.7974 281.871 115.031 257.067 133.053L230.453 152.389C219.36 160.448 214.718 174.734 218.955 187.775L229.121 219.061C238.595 248.221 205.221 272.469 180.417 254.447L153.803 235.111C142.71 227.052 127.689 227.052 116.596 235.111L89.9818 254.447C65.1773 272.469 31.803 248.221 41.2775 219.061L51.4431 187.775C55.6802 174.734 51.0385 160.448 39.9456 152.389L13.3316 133.053C-11.473 115.031 1.27485 75.7974 31.9349 75.7974L64.8317 75.7974C78.5433 75.7974 90.6955 66.9683 94.9326 53.9278L105.098 22.6412Z" fill="#FF7D1E"/>
<path d="M105.098 22.6412C114.573 -6.51831 155.826 -6.51831 165.3 22.6412L175.466 53.9278C179.703 66.9683 191.855 75.7974 205.567 75.7974L238.463 75.7974C269.124 75.7974 281.871 115.031 257.067 133.053L230.453 152.389C219.36 160.448 214.718 174.734 218.955 187.775L229.121 219.061C238.595 248.221 205.221 272.469 180.417 254.447L153.803 235.111C142.71 227.052 127.689 227.052 116.596 235.111L89.9818 254.447C65.1773 272.469 31.803 248.221 41.2775 219.061L51.4431 187.775C55.6802 174.734 51.0385 160.448 39.9456 152.389L13.3316 133.053C-11.473 115.031 1.27485 75.7974 31.9349 75.7974L64.8317 75.7974C78.5433 75.7974 90.6955 66.9683 94.9326 53.9278L105.098 22.6412Z" fill="#FF7D1E"/>
<path d="M105.098 22.6412C114.573 -6.51831 155.826 -6.51831 165.3 22.6412L175.466 53.9278C179.703 66.9683 191.855 75.7974 205.567 75.7974L238.463 75.7974C269.124 75.7974 281.871 115.031 257.067 133.053L230.453 152.389C219.36 160.448 214.718 174.734 218.955 187.775L229.121 219.061C238.595 248.221 205.221 272.469 180.417 254.447L153.803 235.111C142.71 227.052 127.689 227.052 116.596 235.111L89.9818 254.447C65.1773 272.469 31.803 248.221 41.2775 219.061L51.4431 187.775C55.6802 174.734 51.0385 160.448 39.9456 152.389L13.3316 133.053C-11.473 115.031 1.27485 75.7974 31.9349 75.7974L64.8317 75.7974C78.5433 75.7974 90.6955 66.9683 94.9326 53.9278L105.098 22.6412Z" fill="#FF7D1E"/>
<path d="M105.098 22.6412C114.573 -6.51831 155.826 -6.51831 165.3 22.6412L175.466 53.9278C179.703 66.9683 191.855 75.7974 205.567 75.7974L238.463 75.7974C269.124 75.7974 281.871 115.031 257.067 133.053L230.453 152.389C219.36 160.448 214.718 174.734 218.955 187.775L229.121 219.061C238.595 248.221 205.221 272.469 180.417 254.447L153.803 235.111C142.71 227.052 127.689 227.052 116.596 235.111L89.9818 254.447C65.1773 272.469 31.803 248.221 41.2775 219.061L51.4431 187.775C55.6802 174.734 51.0385 160.448 39.9456 152.389L13.3316 133.053C-11.473 115.031 1.27485 75.7974 31.9349 75.7974L64.8317 75.7974C78.5433 75.7974 90.6955 66.9683 94.9326 53.9278L105.098 22.6412Z" fill="#FF7D1E"/>
</svg>
